<svg xmlns="http://www.w3.org/2000/svg" xmlns:xlink="http://www.w3.org/1999/xlink" width="500" zoomAndPan="magnify" viewBox="0 0 375 374.999991" height="500" preserveAspectRatio="xMidYMid meet" version="1.2"><defs><clipPath id="71ad1f09af"><path d="M 100.109375 120.105469 L 275 120.105469 L 275 274.265625 L 100.109375 274.265625 Z M 100.109375 120.105469 "/></clipPath><clipPath id="a9245c45a3"><path d="M 195.4375 269.535156 L 273.570312 133.757812 C 275.191406 130.941406 275.1875 127.46875 273.5625 124.65625 C 271.933594 121.839844 268.929688 120.105469 265.675781 120.105469 L 109.488281 120.105469 C 106.238281 120.105469 103.234375 121.839844 101.605469 124.65625 C 99.976562 127.46875 99.972656 130.941406 101.59375 133.757812 L 179.726562 269.535156 C 181.34375 272.34375 184.339844 274.078125 187.582031 274.078125 C 190.824219 274.078125 193.820312 272.34375 195.4375 269.535156 Z M 195.4375 269.535156 "/></clipPath><clipPath id="4b46e73d92"><path d="M 181 123 L 275 123 L 275 285 L 181 285 Z M 181 123 "/></clipPath><clipPath id="b8a67e2705"><path d="M 179.746094 280.96875 L 266.898438 121.777344 L 310.730469 145.773438 L 223.574219 304.964844 Z M 179.746094 280.96875 "/></clipPath><clipPath id="9224b597d8"><path d="M 272.539062 204.742188 L 274.644531 129.679688 C 274.71875 127.09375 273.007812 124.792969 270.507812 124.117188 C 268.011719 123.441406 265.375 124.5625 264.132812 126.835938 L 182.496094 275.941406 C 181.253906 278.214844 181.726562 281.039062 183.644531 282.78125 C 185.558594 284.519531 188.417969 284.722656 190.558594 283.265625 L 252.660156 241.050781 C 264.734375 232.84375 272.128906 219.335938 272.539062 204.742188 Z M 272.539062 204.742188 "/></clipPath><clipPath id="0ba185aac5"><path d="M 100 123 L 194 123 L 194 285 L 100 285 Z M 100 123 "/></clipPath><clipPath id="15bf447b09"><path d="M 108.117188 121.808594 L 195.273438 281 L 151.441406 304.996094 L 64.289062 145.804688 Z M 108.117188 121.808594 "/></clipPath><clipPath id="72662cb653"><path d="M 122.339844 241.054688 L 184.441406 283.265625 C 186.582031 284.722656 189.441406 284.519531 191.355469 282.78125 C 193.273438 281.039062 193.746094 278.214844 192.503906 275.945312 L 110.867188 126.835938 C 109.625 124.566406 106.988281 123.441406 104.492188 124.117188 C 101.992188 124.792969 100.28125 127.09375 100.355469 129.683594 L 102.460938 204.742188 C 102.871094 219.335938 110.265625 232.84375 122.339844 241.054688 Z M 122.339844 241.054688 "/></clipPath><clipPath id="7ad5c7103f"><path d="M 100 96 L 221 96 L 221 186 L 100 186 Z M 100 96 "/></clipPath><clipPath id="9c082acc4c"><path d="M 98.105469 122.785156 L 206.230469 94.082031 L 223.441406 158.90625 L 115.3125 187.609375 Z M 98.105469 122.785156 "/></clipPath><clipPath id="993b954170"><path d="M 108.253906 120.089844 L 195.886719 96.828125 C 198.578125 96.113281 201.441406 96.5 203.851562 97.894531 C 206.257812 99.292969 208.011719 101.589844 208.726562 104.285156 L 220.546875 148.8125 C 221.261719 151.503906 220.878906 154.367188 219.480469 156.777344 C 218.082031 159.1875 215.785156 160.941406 213.09375 161.65625 L 125.460938 184.917969 C 122.769531 185.632812 119.90625 185.246094 117.496094 183.851562 C 115.089844 182.453125 113.335938 180.15625 112.621094 177.460938 L 100.800781 132.933594 C 100.085938 130.242188 100.46875 127.378906 101.867188 124.96875 C 103.265625 122.558594 105.5625 120.804688 108.253906 120.089844 Z M 108.253906 120.089844 "/></clipPath><clipPath id="40c37174a9"><path d="M 176 97 L 275 97 L 275 183 L 176 183 Z M 176 97 "/></clipPath><clipPath id="298e3b8813"><path d="M 194.332031 94.84375 L 277.332031 122.054688 L 256.597656 185.292969 L 173.597656 158.082031 Z M 194.332031 94.84375 "/></clipPath><clipPath id="0e4c50e139"><path d="M 204.308594 98.113281 L 267.203125 118.734375 C 269.847656 119.601562 272.042969 121.484375 273.300781 123.96875 C 274.558594 126.453125 274.777344 129.335938 273.910156 131.980469 L 259.71875 175.265625 C 258.851562 177.910156 256.96875 180.105469 254.484375 181.363281 C 252 182.621094 249.117188 182.839844 246.46875 181.972656 L 183.574219 161.351562 C 180.929688 160.484375 178.738281 158.601562 177.480469 156.117188 C 176.222656 153.632812 176.003906 150.75 176.871094 148.105469 L 191.058594 104.820312 C 191.925781 102.175781 193.808594 99.980469 196.292969 98.722656 C 198.777344 97.464844 201.660156 97.246094 204.308594 98.113281 Z M 204.308594 98.113281 "/></clipPath><clipPath id="e48a1ee361"><path d="M 102 169 L 119 169 L 119 200 L 102 200 Z M 102 169 "/></clipPath><clipPath id="2863b93c62"><path d="M 101.984375 199.273438 L 106.71875 169.246094 L 120.679688 171.445312 L 115.941406 201.476562 Z M 101.984375 199.273438 "/></clipPath><clipPath id="7e34cd287e"><path d="M 116.972656 179.816406 L 111.777344 171.140625 C 111.128906 170.058594 109.875 169.5 108.636719 169.738281 C 107.402344 169.980469 106.449219 170.964844 106.25 172.210938 L 102.457031 196.261719 C 102.261719 197.503906 102.863281 198.738281 103.96875 199.347656 C 105.070312 199.957031 106.4375 199.808594 107.382812 198.980469 L 115 192.324219 C 118.597656 189.179688 119.425781 183.914062 116.972656 179.816406 Z M 116.972656 179.816406 "/></clipPath><clipPath id="77ef8a38df"><path d="M 100 120 L 119 120 L 119 192 L 100 192 Z M 100 120 "/></clipPath><clipPath id="42d23e69c6"><path d="M 99.941406 120.585938 L 116.820312 120.058594 L 119.058594 191.589844 L 102.179688 192.117188 Z M 99.941406 120.585938 "/></clipPath><clipPath id="2fb72c0fd3"><path d="M 108.382812 120.320312 C 110.621094 120.25 112.792969 121.074219 114.425781 122.605469 C 116.058594 124.140625 117.015625 126.257812 117.085938 128.496094 L 118.792969 183.117188 C 118.863281 185.355469 118.042969 187.53125 116.507812 189.164062 C 114.976562 190.792969 112.859375 191.75 110.621094 191.820312 C 108.382812 191.890625 106.207031 191.070312 104.574219 189.535156 C 102.941406 188.003906 101.988281 185.882812 101.917969 183.644531 L 100.207031 129.023438 C 100.136719 126.785156 100.957031 124.613281 102.492188 122.980469 C 104.023438 121.347656 106.144531 120.390625 108.382812 120.320312 Z M 108.382812 120.320312 "/></clipPath><clipPath id="39ec392964"><path d="M 105 117 L 117 117 L 117 129 L 105 129 Z M 105 117 "/></clipPath><clipPath id="a17fc11ede"><path d="M 112.8125 128.324219 L 105.640625 120.847656 L 112.730469 114.050781 L 119.898438 121.527344 Z M 112.8125 128.324219 "/></clipPath><clipPath id="09cd2b6bd7"><path d="M 116.324219 117.796875 L 105.664062 120.867188 L 112.8125 128.324219 Z M 116.324219 117.796875 "/></clipPath><clipPath id="bad47e2ac0"><path d="M 103 117 L 118 117 L 118 131 L 103 131 Z M 103 117 "/></clipPath><clipPath id="f55b5e4a64"><path d="M 103.230469 130.933594 L 102.832031 118.261719 L 116.839844 117.820312 L 117.238281 130.492188 Z M 103.230469 130.933594 "/></clipPath><clipPath id="427ae35da8"><path d="M 103.03125 124.597656 L 116.820312 117.820312 L 117.21875 130.492188 Z M 103.03125 124.597656 "/></clipPath><clipPath id="4d5f77e2b4"><path d="M 102 174 L 117 174 L 117 204 L 102 204 Z M 102 174 "/></clipPath><clipPath id="0cb018069e"><path d="M 117.101562 175.164062 L 116.113281 204.375 L 102.617188 203.921875 L 103.605469 174.710938 Z M 117.101562 175.164062 "/></clipPath><clipPath id="4a53dcfcac"><path d="M 116.609375 189.761719 L 102.617188 203.902344 L 103.605469 174.710938 Z M 116.609375 189.761719 "/></clipPath><clipPath id="7e8557f3ac"><path d="M 246 245 L 265 245 L 265 271 L 246 271 Z M 246 245 "/></clipPath><clipPath id="28384b0d84"><path d="M 246.4375 270.097656 L 253.773438 245.945312 L 267.988281 250.261719 L 260.652344 274.414062 Z M 246.4375 270.097656 "/></clipPath><clipPath id="da81cee0a8"><path d="M 264.316406 262.351562 L 253.765625 245.96875 L 246.4375 270.097656 Z M 264.316406 262.351562 "/></clipPath><clipPath id="c29dd0f693"><path d="M 263 250 L 282 250 L 282 274 L 263 274 Z M 263 250 "/></clipPath><clipPath id="89425d8526"><path d="M 272.597656 273.640625 L 263.476562 250.101562 L 277.332031 244.734375 L 286.453125 268.273438 Z M 272.597656 273.640625 "/></clipPath><clipPath id="d77c9d4aa8"><path d="M 281.894531 256.515625 L 263.488281 250.125 L 272.597656 273.640625 Z M 281.894531 256.515625 "/></clipPath><clipPath id="f4814a1edc"><path d="M 250 250 L 268 250 L 268 275 L 250 275 Z M 250 250 "/></clipPath><clipPath id="3d8e431690"><path d="M 267.984375 250.433594 L 260.246094 274.457031 L 246.332031 269.976562 L 254.066406 245.949219 Z M 267.984375 250.433594 "/></clipPath><clipPath id="56fa559b25"><path d="M 250.203125 257.953125 L 260.25 274.4375 L 267.984375 250.433594 Z M 250.203125 257.953125 "/></clipPath><clipPath id="ae59128ad6"><path d="M 268 244 L 287 244 L 287 269 L 268 269 Z M 268 244 "/></clipPath><clipPath id="37036dfc6e"><path d="M 277.429688 244.875 L 286.15625 268.554688 L 272.4375 273.609375 L 263.714844 249.925781 Z M 277.429688 244.875 "/></clipPath><clipPath id="b506006070"><path d="M 268.074219 261.757812 L 286.148438 268.539062 L 277.429688 244.875 Z M 268.074219 261.757812 "/></clipPath><clipPath id="e06fc4f4b9"><path d="M 238 205 L 290 205 L 290 258 L 238 258 Z M 238 205 "/></clipPath><clipPath id="1f08003286"><path d="M 237.347656 207.191406 L 288.574219 204.414062 L 291.351562 255.640625 L 240.125 258.417969 Z M 237.347656 207.191406 "/></clipPath><clipPath id="cbc3f7e0e1"><path d="M 262.960938 205.804688 C 248.816406 206.570312 237.96875 218.660156 238.738281 232.804688 C 239.503906 246.949219 251.59375 257.792969 265.738281 257.027344 C 279.882812 256.261719 290.730469 244.171875 289.960938 230.027344 C 289.195312 215.882812 277.105469 205.035156 262.960938 205.804688 Z M 262.960938 205.804688 "/></clipPath><clipPath id="7fe682780e"><path d="M 242 209 L 287 209 L 287 254 L 242 254 Z M 242 209 "/></clipPath><clipPath id="edacbda46a"><path d="M 241.53125 210.945312 L 284.820312 208.597656 L 287.167969 251.886719 L 243.878906 254.230469 Z M 241.53125 210.945312 "/></clipPath><clipPath id="ca97d090f7"><path d="M 263.175781 209.773438 C 251.222656 210.421875 242.058594 220.636719 242.707031 232.589844 C 243.355469 244.542969 253.570312 253.707031 265.523438 253.058594 C 277.476562 252.410156 286.640625 242.195312 285.992188 230.242188 C 285.34375 218.289062 275.128906 209.125 263.175781 209.773438 Z M 263.175781 209.773438 "/></clipPath><clipPath id="1ad25575fa"><path d="M 248.257812 215.753906 L 279.007812 215.753906 L 279.007812 245 L 248.257812 245 Z M 248.257812 215.753906 "/></clipPath><clipPath id="511e94941a"><path d="M 248.257812 215.753906 L 279 215.753906 L 279 245 L 248.257812 245 Z M 248.257812 215.753906 "/></clipPath><filter x="0%" y="0%" width="100%" filterUnits="objectBoundingBox" id="2749187087" height="100%"><feColorMatrix values="0 0 0 0 1 0 0 0 0 1 0 0 0 0 1 0 0 0 1 0" type="matrix" in="SourceGraphic"/></filter><clipPath id="a4cb11b696"><path d="M 0.28125 1.136719 L 170.679688 1.136719 L 170.679688 141 L 0.28125 141 Z M 0.28125 1.136719 "/></clipPath><clipPath id="02cb6ece71"><rect x="0" width="171" y="0" height="142"/></clipPath><clipPath id="1168336dff"><path d="M 126 89.390625 L 297 89.390625 L 297 229.640625 L 126 229.640625 Z M 126 89.390625 "/></clipPath><clipPath id="10a01edf0d"><path d="M 230 161 L 284 161 L 284 209 L 230 209 Z M 230 161 "/></clipPath><clipPath id="74324e85b9"><path d="M 233.644531 211.863281 L 227.910156 205.339844 L 279.960938 159.59375 L 285.699219 166.121094 Z M 233.644531 211.863281 "/></clipPath><clipPath id="09517a1f25"><path d="M 230.835938 207.164062 L 276.546875 162.621094 C 277.394531 161.792969 278.550781 161.351562 279.734375 161.398438 C 280.921875 161.441406 282.035156 161.972656 282.820312 162.863281 C 283.601562 163.757812 283.984375 164.929688 283.878906 166.113281 C 283.773438 167.292969 283.183594 168.382812 282.253906 169.117188 L 232.210938 208.726562 C 231.777344 209.074219 231.148438 209.015625 230.78125 208.597656 C 230.414062 208.179688 230.4375 207.550781 230.835938 207.164062 Z M 230.835938 207.164062 "/></clipPath><clipPath id="a5a702fa77"><path d="M 74 139 L 148 139 L 148 203 L 74 203 Z M 74 139 "/></clipPath><clipPath id="6bfe076bed"><path d="M 144.632812 135.941406 L 150.789062 143.246094 L 78.390625 204.269531 L 72.234375 196.964844 Z M 144.632812 135.941406 "/></clipPath><clipPath id="cbd068bee6"><path d="M 147.628906 140.816406 L 82.175781 201.050781 C 81.21875 201.929688 79.949219 202.378906 78.652344 202.296875 C 77.355469 202.214844 76.152344 201.609375 75.3125 200.613281 C 74.476562 199.621094 74.082031 198.332031 74.222656 197.039062 C 74.359375 195.75 75.019531 194.570312 76.046875 193.777344 L 146.492188 139.46875 C 146.867188 139.179688 147.402344 139.238281 147.707031 139.597656 C 148.011719 139.960938 147.976562 140.496094 147.628906 140.816406 Z M 147.628906 140.816406 "/></clipPath><clipPath id="3e7adb46ba"><path d="M 87 214 L 136 214 L 136 259 L 87 259 Z M 87 214 "/></clipPath><clipPath id="88610d841a"><path d="M 132.285156 211.054688 L 138.597656 218.019531 L 91.425781 260.757812 L 85.113281 253.792969 Z M 132.285156 211.054688 "/></clipPath><clipPath id="6927d99d04"><path d="M 135.378906 216.230469 L 95.113281 257.382812 C 94.210938 258.304688 92.964844 258.8125 91.675781 258.789062 C 90.386719 258.761719 89.164062 258.207031 88.296875 257.25 C 87.429688 256.292969 86.996094 255.023438 87.101562 253.738281 C 87.203125 252.449219 87.832031 251.261719 88.835938 250.457031 L 133.746094 214.429688 C 134.25 214.027344 134.980469 214.085938 135.414062 214.5625 C 135.84375 215.039062 135.832031 215.769531 135.378906 216.230469 Z M 135.378906 216.230469 "/></clipPath><clipPath id="9cf0e5b455"><path d="M 283 150 L 296 150 L 296 163 L 283 163 Z M 283 150 "/></clipPath><clipPath id="03ff7983ce"><path d="M 289.738281 149.734375 L 296.613281 156.945312 L 289.011719 164.195312 L 282.136719 156.984375 Z M 289.738281 149.734375 "/></clipPath><clipPath id="75380e4e68"><path d="M 291.808594 151.90625 L 294.542969 154.773438 C 295.6875 155.972656 295.644531 157.871094 294.445312 159.015625 L 291.183594 162.125 C 289.984375 163.265625 288.085938 163.222656 286.941406 162.023438 L 284.207031 159.15625 C 283.066406 157.957031 283.109375 156.054688 284.308594 154.914062 L 287.566406 151.804688 C 288.765625 150.660156 290.667969 150.707031 291.808594 151.90625 Z M 291.808594 151.90625 "/></clipPath><clipPath id="ef3911c2c9"><path d="M 76 257 L 89 257 L 89 270 L 76 270 Z M 76 257 "/></clipPath><clipPath id="e25d6f254d"><path d="M 82.4375 255.933594 L 89.316406 263.144531 L 81.710938 270.394531 L 74.835938 263.1875 Z M 82.4375 255.933594 "/></clipPath><clipPath id="8f6e7ff21a"><path d="M 84.507812 258.105469 L 87.246094 260.972656 C 88.386719 262.171875 88.34375 264.070312 87.144531 265.214844 L 83.882812 268.324219 C 82.683594 269.464844 80.785156 269.421875 79.644531 268.222656 L 76.910156 265.355469 C 75.765625 264.15625 75.808594 262.257812 77.007812 261.113281 L 80.269531 258.003906 C 81.46875 256.863281 83.367188 256.90625 84.507812 258.105469 Z M 84.507812 258.105469 "/></clipPath></defs><g id="9dd1a02f98"><g clip-rule="nonzero" clip-path="url(#71ad1f09af)"><g clip-rule="nonzero" clip-path="url(#a9245c45a3)"><path style=" stroke:none;fill-rule:nonzero;fill:#ff8c00;fill-opacity:1;" d="M 93.738281 120.105469 L 281.660156 120.105469 L 281.660156 283.183594 L 93.738281 283.183594 Z M 93.738281 120.105469 "/></g></g><g clip-rule="nonzero" clip-path="url(#4b46e73d92)"><g clip-rule="nonzero" clip-path="url(#b8a67e2705)"><g clip-rule="nonzero" clip-path="url(#9224b597d8)"><path style=" stroke:none;fill-rule:nonzero;fill:#ff8c00;fill-opacity:1;" d="M 171.332031 296.335938 L 275.3125 106.410156 L 323.886719 133 L 219.902344 322.929688 Z M 171.332031 296.335938 "/></g></g></g><g clip-rule="nonzero" clip-path="url(#0ba185aac5)"><g clip-rule="nonzero" clip-path="url(#15bf447b09)"><g clip-rule="nonzero" clip-path="url(#72662cb653)"><path style=" stroke:none;fill-rule:nonzero;fill:#ff8c00;fill-opacity:1;" d="M 99.703125 106.441406 L 203.6875 296.371094 L 155.113281 322.960938 L 51.128906 133.035156 Z M 99.703125 106.441406 "/></g></g></g><g clip-rule="nonzero" clip-path="url(#7ad5c7103f)"><g clip-rule="nonzero" clip-path="url(#9c082acc4c)"><g clip-rule="nonzero" clip-path="url(#993b954170)"><path style=" stroke:none;fill-rule:nonzero;fill:#ff8c00;fill-opacity:1;" d="M 98.105469 122.785156 L 205.980469 94.148438 L 223.1875 158.976562 L 115.3125 187.609375 Z M 98.105469 122.785156 "/></g></g></g><g clip-rule="nonzero" clip-path="url(#40c37174a9)"><g clip-rule="nonzero" clip-path="url(#298e3b8813)"><g clip-rule="nonzero" clip-path="url(#0e4c50e139)"><path style=" stroke:none;fill-rule:nonzero;fill:#ff8c00;fill-opacity:1;" d="M 194.332031 94.84375 L 277.082031 121.972656 L 256.351562 185.210938 L 173.597656 158.082031 Z M 194.332031 94.84375 "/></g></g></g><g clip-rule="nonzero" clip-path="url(#e48a1ee361)"><g clip-rule="nonzero" clip-path="url(#2863b93c62)"><g clip-rule="nonzero" clip-path="url(#7e34cd287e)"><path style=" stroke:none;fill-rule:nonzero;fill:#1e1523;fill-opacity:1;" d="M 101.171875 204.410156 L 107.539062 164.042969 L 124.398438 166.703125 L 118.03125 207.070312 Z M 101.171875 204.410156 "/></g></g></g><g clip-rule="nonzero" clip-path="url(#77ef8a38df)"><g clip-rule="nonzero" clip-path="url(#42d23e69c6)"><g clip-rule="nonzero" clip-path="url(#2fb72c0fd3)"><path style=" stroke:none;fill-rule:nonzero;fill:#1e1523;fill-opacity:1;" d="M 99.941406 120.585938 L 116.820312 120.058594 L 119.058594 191.589844 L 102.179688 192.117188 Z M 99.941406 120.585938 "/></g></g></g><g clip-rule="nonzero" clip-path="url(#39ec392964)"><g clip-rule="nonzero" clip-path="url(#a17fc11ede)"><g clip-rule="nonzero" clip-path="url(#09cd2b6bd7)"><path style=" stroke:none;fill-rule:nonzero;fill:#1e1523;fill-opacity:1;" d="M 112.8125 128.324219 L 105.667969 120.875 L 112.757812 114.078125 L 119.898438 121.527344 Z M 112.8125 128.324219 "/></g></g></g><g clip-rule="nonzero" clip-path="url(#bad47e2ac0)"><g clip-rule="nonzero" clip-path="url(#f55b5e4a64)"><g clip-rule="nonzero" clip-path="url(#427ae35da8)"><path style=" stroke:none;fill-rule:nonzero;fill:#1e1523;fill-opacity:1;" d="M 103.230469 130.933594 L 102.832031 118.261719 L 116.839844 117.820312 L 117.238281 130.492188 Z M 103.230469 130.933594 "/></g></g></g><g clip-rule="nonzero" clip-path="url(#4d5f77e2b4)"><g clip-rule="nonzero" clip-path="url(#0cb018069e)"><g clip-rule="nonzero" clip-path="url(#4a53dcfcac)"><path style=" stroke:none;fill-rule:nonzero;fill:#1e1523;fill-opacity:1;" d="M 117.101562 175.164062 L 116.113281 204.375 L 102.617188 203.921875 L 103.605469 174.710938 Z M 117.101562 175.164062 "/></g></g></g><path style="fill:none;stroke-width:4;stroke-linecap:butt;stroke-linejoin:miter;stroke:#1e1523;stroke-opacity:1;stroke-miterlimit:4;" d="M -0.000593564 2.002238 L 57.222153 1.999626 " transform="matrix(0.0195577,0.746877,-0.746877,0.0195577,104.171218,156.96519)"/><g clip-rule="nonzero" clip-path="url(#7e8557f3ac)"><g clip-rule="nonzero" clip-path="url(#28384b0d84)"><g clip-rule="nonzero" clip-path="url(#da81cee0a8)"><path style=" stroke:none;fill-rule:nonzero;fill:#1e1523;fill-opacity:1;" d="M 246.4375 270.097656 L 253.773438 245.945312 L 267.988281 250.261719 L 260.652344 274.414062 Z M 246.4375 270.097656 "/></g></g></g><g clip-rule="nonzero" clip-path="url(#c29dd0f693)"><g clip-rule="nonzero" clip-path="url(#89425d8526)"><g clip-rule="nonzero" clip-path="url(#d77c9d4aa8)"><path style=" stroke:none;fill-rule:nonzero;fill:#1e1523;fill-opacity:1;" d="M 272.597656 273.640625 L 263.476562 250.101562 L 277.332031 244.734375 L 286.453125 268.273438 Z M 272.597656 273.640625 "/></g></g></g><g clip-rule="nonzero" clip-path="url(#f4814a1edc)"><g clip-rule="nonzero" clip-path="url(#3d8e431690)"><g clip-rule="nonzero" clip-path="url(#56fa559b25)"><path style=" stroke:none;fill-rule:nonzero;fill:#1e1523;fill-opacity:1;" d="M 267.984375 250.433594 L 260.246094 274.457031 L 246.332031 269.976562 L 254.066406 245.949219 Z M 267.984375 250.433594 "/></g></g></g><g clip-rule="nonzero" clip-path="url(#ae59128ad6)"><g clip-rule="nonzero" clip-path="url(#37036dfc6e)"><g clip-rule="nonzero" clip-path="url(#b506006070)"><path style=" stroke:none;fill-rule:nonzero;fill:#1e1523;fill-opacity:1;" d="M 277.429688 244.875 L 286.15625 268.554688 L 272.4375 273.609375 L 263.714844 249.925781 Z M 277.429688 244.875 "/></g></g></g><g clip-rule="nonzero" clip-path="url(#e06fc4f4b9)"><g clip-rule="nonzero" clip-path="url(#1f08003286)"><g clip-rule="nonzero" clip-path="url(#cbc3f7e0e1)"><path style=" stroke:none;fill-rule:nonzero;fill:#ffbd59;fill-opacity:1;" d="M 237.347656 207.191406 L 288.574219 204.414062 L 291.351562 255.640625 L 240.125 258.417969 Z M 237.347656 207.191406 "/></g></g></g><g clip-rule="nonzero" clip-path="url(#7fe682780e)"><g clip-rule="nonzero" clip-path="url(#edacbda46a)"><g clip-rule="nonzero" clip-path="url(#ca97d090f7)"><path style=" stroke:none;fill-rule:nonzero;fill:#ff8c00;fill-opacity:1;" d="M 241.53125 210.945312 L 284.820312 208.597656 L 287.167969 251.886719 L 243.878906 254.230469 Z M 241.53125 210.945312 "/></g></g></g><g clip-rule="nonzero" clip-path="url(#1ad25575fa)"><path style=" stroke:none;fill-rule:nonzero;fill:#ffffff;fill-opacity:1;" d="M 263.671875 215.859375 L 268.410156 225.449219 L 279.007812 226.984375 L 271.335938 234.457031 L 273.152344 244.996094 L 263.671875 240.019531 L 254.183594 244.996094 L 255.996094 234.457031 L 248.328125 226.984375 L 258.925781 225.449219 Z M 263.671875 215.859375 "/></g><g clip-rule="nonzero" clip-path="url(#511e94941a)"><path style=" stroke:none;fill-rule:nonzero;fill:#ffffff;fill-opacity:1;" d="M 263.597656 215.765625 L 268.339844 225.355469 L 278.9375 226.894531 L 271.269531 234.363281 L 273.078125 244.902344 L 263.597656 239.925781 L 254.117188 244.902344 L 255.925781 234.363281 L 248.257812 226.894531 L 258.855469 225.355469 Z M 263.597656 215.765625 "/><path style=" stroke:none;fill-rule:nonzero;fill:#ffffff;fill-opacity:1;" d="M 263.597656 215.765625 L 268.339844 225.355469 L 278.9375 226.894531 L 271.269531 234.363281 L 273.078125 244.902344 L 263.597656 239.925781 L 254.117188 244.902344 L 255.925781 234.363281 L 248.257812 226.894531 L 258.855469 225.355469 Z M 263.597656 215.765625 "/><path style=" stroke:none;fill-rule:nonzero;fill:#ffffff;fill-opacity:1;" d="M 263.597656 215.765625 L 268.339844 225.355469 L 278.9375 226.894531 L 271.269531 234.363281 L 273.078125 244.902344 L 263.597656 239.925781 L 254.117188 244.902344 L 255.925781 234.363281 L 248.257812 226.894531 L 258.855469 225.355469 Z M 263.597656 215.765625 "/></g><g mask="url(#57c976f757)" transform="matrix(1,0,0,1,137,93)"><g clip-path="url(#02cb6ece71)"><g clip-rule="nonzero" clip-path="url(#a4cb11b696)"><path style=" stroke:none;fill-rule:nonzero;fill:#1e1523;fill-opacity:1;" d="M 56.492188 140.875 C 50.90625 140.875 45.320312 138.671875 41.164062 134.832031 L 7.125 103.332031 C 0.703125 97.398438 -1.308594 89.191406 1.742188 81.390625 C 5.105469 72.804688 13.734375 66.808594 22.730469 66.808594 C 28.003906 66.808594 32.976562 68.832031 37.113281 72.652344 L 55.265625 89.449219 L 133.707031 7.796875 C 137.824219 3.507812 142.886719 1.238281 148.351562 1.238281 C 156.890625 1.238281 165.023438 6.855469 168.582031 15.214844 C 171.949219 23.113281 170.320312 31.613281 164.230469 37.957031 L 71.417969 134.574219 C 67.511719 138.636719 62.210938 140.875 56.492188 140.875 Z M 22.730469 79.273438 C 18.871094 79.273438 14.835938 82.136719 13.351562 85.933594 C 12.171875 88.945312 12.925781 91.722656 15.589844 94.183594 L 49.628906 125.679688 C 51.503906 127.414062 54.007812 128.410156 56.492188 128.410156 C 58.117188 128.410156 60.464844 127.980469 62.425781 125.9375 L 155.238281 29.320312 C 158.5625 25.859375 158.09375 22.394531 157.113281 20.101562 C 155.535156 16.394531 151.847656 13.703125 148.347656 13.703125 C 146.332031 13.703125 144.429688 14.621094 142.695312 16.429688 L 55.777344 106.910156 L 28.648438 81.804688 C 26.832031 80.125 24.84375 79.273438 22.730469 79.273438 Z M 22.730469 79.273438 "/></g></g><mask id="57c976f757"><g filter="url(#2749187087)"><rect x="0" width="375" y="0" height="374.999991" style="fill:#000000;fill-opacity:0.29;stroke:none;"/></g></mask></g><g clip-rule="nonzero" clip-path="url(#1168336dff)"><path style=" stroke:none;fill-rule:nonzero;fill:#1e1523;fill-opacity:1;" d="M 182.207031 229.128906 C 176.621094 229.128906 171.035156 226.925781 166.878906 223.085938 L 132.835938 191.585938 C 126.417969 185.652344 124.40625 177.445312 127.457031 169.644531 C 130.816406 161.058594 139.445312 155.0625 148.445312 155.0625 C 153.71875 155.0625 158.691406 157.085938 162.824219 160.90625 L 180.976562 177.703125 L 259.421875 96.046875 C 263.539062 91.757812 268.601562 89.492188 274.0625 89.492188 C 282.601562 89.492188 290.734375 95.109375 294.296875 103.46875 C 297.664062 111.367188 296.035156 119.867188 289.945312 126.207031 L 197.128906 222.824219 C 193.226562 226.886719 187.925781 229.128906 182.207031 229.128906 Z M 148.445312 167.527344 C 144.582031 167.527344 140.550781 170.390625 139.0625 174.1875 C 137.886719 177.199219 138.636719 179.976562 141.304688 182.4375 L 175.339844 213.933594 C 177.21875 215.667969 179.71875 216.664062 182.207031 216.664062 C 183.832031 216.664062 186.179688 216.234375 188.140625 214.191406 L 280.953125 117.574219 C 284.277344 114.113281 283.808594 110.648438 282.828125 108.355469 C 281.25 104.648438 277.5625 101.957031 274.0625 101.957031 C 272.046875 101.957031 270.144531 102.875 268.410156 104.683594 L 181.488281 195.164062 L 154.363281 170.058594 C 152.546875 168.378906 150.554688 167.527344 148.445312 167.527344 Z M 148.445312 167.527344 "/></g><g clip-rule="nonzero" clip-path="url(#10a01edf0d)"><g clip-rule="nonzero" clip-path="url(#74324e85b9)"><g clip-rule="nonzero" clip-path="url(#09517a1f25)"><path style=" stroke:none;fill-rule:nonzero;fill:#1e1523;fill-opacity:1;" d="M 219.34375 224.71875 L 213.324219 217.871094 L 279.820312 159.433594 L 285.839844 166.28125 Z M 219.34375 224.71875 "/></g></g></g><g clip-rule="nonzero" clip-path="url(#a5a702fa77)"><g clip-rule="nonzero" clip-path="url(#6bfe076bed)"><g clip-rule="nonzero" clip-path="url(#cbd068bee6)"><path style=" stroke:none;fill-rule:nonzero;fill:#1e1523;fill-opacity:1;" d="M 159.324219 123.304688 L 165.734375 130.90625 L 78.515625 204.417969 L 72.109375 196.816406 Z M 159.324219 123.304688 "/></g></g></g><g clip-rule="nonzero" clip-path="url(#3e7adb46ba)"><g clip-rule="nonzero" clip-path="url(#88610d841a)"><g clip-rule="nonzero" clip-path="url(#6927d99d04)"><path style=" stroke:none;fill-rule:nonzero;fill:#1e1523;fill-opacity:1;" d="M 146.207031 198.074219 L 152.882812 205.441406 L 91.636719 260.933594 L 84.960938 253.566406 Z M 146.207031 198.074219 "/></g></g></g><g clip-rule="nonzero" clip-path="url(#9cf0e5b455)"><g clip-rule="nonzero" clip-path="url(#03ff7983ce)"><g clip-rule="nonzero" clip-path="url(#75380e4e68)"><path style=" stroke:none;fill-rule:nonzero;fill:#1e1523;fill-opacity:1;" d="M 289.738281 149.734375 L 296.613281 156.945312 L 289.011719 164.195312 L 282.136719 156.988281 Z M 289.738281 149.734375 "/></g></g></g><g clip-rule="nonzero" clip-path="url(#ef3911c2c9)"><g clip-rule="nonzero" clip-path="url(#e25d6f254d)"><g clip-rule="nonzero" clip-path="url(#8f6e7ff21a)"><path style=" stroke:none;fill-rule:nonzero;fill:#1e1523;fill-opacity:1;" d="M 82.4375 255.933594 L 89.316406 263.144531 L 81.710938 270.394531 L 74.835938 263.1875 Z M 82.4375 255.933594 "/></g></g></g></g></svg>